<?xml version="1.0" encoding="UTF-8"?>
<svg width="108px" height="42px" viewBox="0 0 108 42" version="1.1" xmlns="http://www.w3.org/2000/svg" xmlns:xlink="http://www.w3.org/1999/xlink">
    <defs>
        <path d="M-1.52911475e-111,36.7931908 C-2.36520749e-111,37.3453049 0.198282429,37.4017515 0.453287427,36.8987308 L16.6245117,4.99951172 L5.35557543e-110,0.417881759 L-1.52911475e-111,36.7931908 Z" id="path-1"></path>
        <mask id="mask-2" maskContentUnits="userSpaceOnUse" maskUnits="objectBoundingBox" x="0" y="0" width="16.6245117" height="36.8260824" fill="white">
            <use xlink:href="#path-1"></use>
        </mask>
        <polygon id="path-3" points="2.43376002e-14 5.11050814 2.70875415e-16 37.1105081 21.125 25.1105081"></polygon>
        <mask id="mask-4" maskContentUnits="userSpaceOnUse" maskUnits="objectBoundingBox" x="0" y="0" width="21.125" height="32" fill="white">
            <use xlink:href="#path-3"></use>
        </mask>
    </defs>
    <g id="Page-1" stroke="none" stroke-width="1" fill="none" fill-rule="evenodd">
        <g id="logo">
            <g id="Group-2" transform="translate(37.000000, 1.000000)" fill="#D8D8D8">
                <path d="M0,0 L6.6,0 C7.3666705,0 8.13749613,0.054166125 8.9125,0.1625 C9.68750388,0.270833875 10.3833303,0.487498375 11,0.8125 C11.6166697,1.13750162 12.1166648,1.59166375 12.5,2.175 C12.8833353,2.75833625 13.075,3.5333285 13.075,4.5 C13.075,5.500005 12.7958361,6.32916337 12.2375,6.9875 C11.6791639,7.64583663 10.9416712,8.11666525 10.025,8.4 L10.025,8.45 C10.6083363,8.53333375 11.1374976,8.69583213 11.6125,8.9375 C12.0875024,9.17916788 12.4958316,9.48749813 12.8375,9.8625 C13.1791684,10.2375019 13.4416657,10.6749975 13.625,11.175 C13.8083343,11.6750025 13.9,12.2083305 13.9,12.775 C13.9,13.708338 13.700002,14.4874969 13.3,15.1125 C12.899998,15.7375031 12.3833365,16.2416648 11.75,16.625 C11.1166635,17.0083353 10.4041706,17.2833325 9.6125,17.45 C8.82082938,17.6166675 8.03333725,17.7 7.25,17.7 L0,17.7 L0,0 Z M3.9,7.075 L6.725,7.075 C7.0250015,7.075 7.32083187,7.041667 7.6125,6.975 C7.90416812,6.908333 8.1666655,6.80000075 8.4,6.65 C8.6333345,6.49999925 8.82083262,6.30000125 8.9625,6.05 C9.10416737,5.79999875 9.175,5.50000175 9.175,5.15 C9.175,4.7833315 9.09583412,4.47916788 8.9375,4.2375 C8.77916587,3.99583213 8.57500125,3.808334 8.325,3.675 C8.07499875,3.541666 7.79166825,3.44583363 7.475,3.3875 C7.15833175,3.32916638 6.8500015,3.3 6.55,3.3 L3.9,3.3 L3.9,7.075 Z M3.9,14.4 L7.4,14.4 C7.7000015,14.4 8.00416512,14.366667 8.3125,14.3 C8.62083487,14.233333 8.89999875,14.1166675 9.15,13.95 C9.40000125,13.7833325 9.60416587,13.566668 9.7625,13.3 C9.92083412,13.033332 10,12.7083353 10,12.325 C10,11.9083312 9.89583437,11.5708346 9.6875,11.3125 C9.47916562,11.0541654 9.21666825,10.858334 8.9,10.725 C8.58333175,10.591666 8.2416685,10.5000002 7.875,10.45 C7.5083315,10.3999997 7.16666825,10.375 6.85,10.375 L3.9,10.375 L3.9,14.4 Z M30.125,10.875 C30.125,11.9250053 29.9666682,12.8916623 29.65,13.775 C29.3333317,14.6583377 28.8625031,15.4249968 28.2375,16.075 C27.6124969,16.7250033 26.833338,17.2333315 25.9,17.6 C24.966662,17.9666685 23.8916727,18.15 22.675,18.15 C21.4416605,18.15 20.358338,17.9666685 19.425,17.6 C18.491662,17.2333315 17.7125031,16.7250033 17.0875,16.075 C16.4624969,15.4249968 15.9916682,14.6583377 15.675,13.775 C15.3583317,12.8916623 15.2,11.9250053 15.2,10.875 L15.2,0 L19.1,0 L19.1,10.725 C19.1,11.2750028 19.1874991,11.783331 19.3625,12.25 C19.5375009,12.716669 19.7833317,13.1208316 20.1,13.4625 C20.4166682,13.8041684 20.7958311,14.0708324 21.2375,14.2625 C21.6791689,14.4541676 22.1583307,14.55 22.675,14.55 C23.1916692,14.55 23.6666645,14.4541676 24.1,14.2625 C24.5333355,14.0708324 24.9083317,13.8041684 25.225,13.4625 C25.5416682,13.1208316 25.7874991,12.716669 25.9625,12.25 C26.1375009,11.783331 26.225,11.2750028 26.225,10.725 L26.225,0 L30.125,0 L30.125,10.875 Z M36.15,3.45 L31.1,3.45 L31.1,0 L45.1,0 L45.1,3.45 L40.05,3.45 L40.05,17.7 L36.15,17.7 L36.15,3.45 Z M46.025,0 L49.925,0 L49.925,17.7 L46.025,17.7 L46.025,0 Z M52.625,0 L56.525,0 L56.525,7.35 L63.4,0 L68.5,0 L60.625,8.225 L69.175,17.7 L63.725,17.7 L56.525,9.3 L56.525,17.7 L52.625,17.7 L52.625,0 Z M0,21 L3.9,21 L3.9,27.6 L11.475,27.6 L11.475,21 L15.375,21 L15.375,38.7 L11.475,38.7 L11.475,31.05 L3.9,31.05 L3.9,38.7 L0,38.7 L0,21 Z M19.025,29.85 C19.025,28.4333263 19.2624976,27.1500058 19.7375,26 C20.2125024,24.8499943 20.8749957,23.8708374 21.725,23.0625 C22.5750042,22.2541626 23.5833275,21.6333355 24.75,21.2 C25.9166725,20.7666645 27.1916597,20.55 28.575,20.55 C29.9583402,20.55 31.2333275,20.7666645 32.4,21.2 C33.5666725,21.6333355 34.5749957,22.2541626 35.425,23.0625 C36.2750042,23.8708374 36.9374976,24.8499943 37.4125,26 C37.8875024,27.1500058 38.125,28.4333263 38.125,29.85 C38.125,31.2666738 37.8875024,32.5499943 37.4125,33.7 C36.9374976,34.8500058 36.2750042,35.8291626 35.425,36.6375 C34.5749957,37.4458374 33.5666725,38.0666645 32.4,38.5 C31.2333275,38.9333355 29.9583402,39.15 28.575,39.15 C27.1916597,39.15 25.9166725,38.9333355 24.75,38.5 C23.5833275,38.0666645 22.5750042,37.4458374 21.725,36.6375 C20.8749957,35.8291626 20.2125024,34.8500058 19.7375,33.7 C19.2624976,32.5499943 19.025,31.2666738 19.025,29.85 Z M23.075,29.85 C23.075,30.6833375 23.2041654,31.4458299 23.4625,32.1375 C23.7208346,32.8291701 24.0916642,33.4291641 24.575,33.9375 C25.0583357,34.4458359 25.6374966,34.8416652 26.3125,35.125 C26.9875034,35.4083347 27.7416625,35.55 28.575,35.55 C29.4083375,35.55 30.1624966,35.4083347 30.8375,35.125 C31.5125034,34.8416652 32.0916642,34.4458359 32.575,33.9375 C33.0583357,33.4291641 33.4291654,32.8291701 33.6875,32.1375 C33.9458346,31.4458299 34.075,30.6833375 34.075,29.85 C34.075,29.0333292 33.9458346,28.2750035 33.6875,27.575 C33.4291654,26.8749965 33.0583357,26.2708359 32.575,25.7625 C32.0916642,25.2541641 31.5125034,24.8583347 30.8375,24.575 C30.1624966,24.2916652 29.4083375,24.15 28.575,24.15 C27.7416625,24.15 26.9875034,24.2916652 26.3125,24.575 C25.6374966,24.8583347 25.0583357,25.2541641 24.575,25.7625 C24.0916642,26.2708359 23.7208346,26.8749965 23.4625,27.575 C23.2041654,28.2750035 23.075,29.0333292 23.075,29.85 Z M50.525,25.325 C50.2083317,24.924998 49.7791694,24.6291676 49.2375,24.4375 C48.6958306,24.2458324 48.1833357,24.15 47.7,24.15 C47.4166652,24.15 47.1250015,24.183333 46.825,24.25 C46.5249985,24.316667 46.241668,24.4208326 45.975,24.5625 C45.708332,24.7041674 45.4916675,24.8916655 45.325,25.125 C45.1583325,25.3583345 45.075,25.641665 45.075,25.975 C45.075,26.508336 45.274998,26.9166653 45.675,27.2 C46.075002,27.4833348 46.5791636,27.724999 47.1875,27.925 C47.7958364,28.125001 48.4499965,28.324999 49.15,28.525 C49.8500035,28.725001 50.5041636,29.0083315 51.1125,29.375 C51.7208364,29.7416685 52.224998,30.2333303 52.625,30.85 C53.025002,31.4666698 53.225,32.2916615 53.225,33.325 C53.225,34.3083383 53.0416685,35.166663 52.675,35.9 C52.3083315,36.633337 51.8125031,37.2416643 51.1875,37.725 C50.5624969,38.2083358 49.8375041,38.5666655 49.0125,38.8 C48.1874959,39.0333345 47.3166712,39.15 46.4,39.15 C45.2499942,39.15 44.1833382,38.9750018 43.2,38.625 C42.2166617,38.2749983 41.3000043,37.7083373 40.45,36.925 L43.225,33.875 C43.625002,34.408336 44.1291636,34.8208319 44.7375,35.1125 C45.3458364,35.4041681 45.9749967,35.55 46.625,35.55 C46.9416682,35.55 47.2624984,35.5125004 47.5875,35.4375 C47.9125016,35.3624996 48.2041654,35.2500008 48.4625,35.1 C48.7208346,34.9499993 48.9291659,34.7583345 49.0875,34.525 C49.2458341,34.2916655 49.325,34.0166683 49.325,33.7 C49.325,33.166664 49.1208354,32.7458349 48.7125,32.4375 C48.3041646,32.1291651 47.7916697,31.8666678 47.175,31.65 C46.5583302,31.4333323 45.8916702,31.2166678 45.175,31 C44.4583297,30.7833323 43.7916697,30.4916685 43.175,30.125 C42.5583302,29.7583315 42.0458354,29.275003 41.6375,28.675 C41.2291646,28.074997 41.025,27.2833383 41.025,26.3 C41.025,25.3499953 41.2124981,24.5166703 41.5875,23.8 C41.9625019,23.0833298 42.4624969,22.4833358 43.0875,22 C43.7125031,21.5166643 44.4333292,21.1541679 45.25,20.9125 C46.0666707,20.6708321 46.908329,20.55 47.775,20.55 C48.775005,20.55 49.741662,20.6916653 50.675,20.975 C51.608338,21.2583348 52.4499962,21.73333 53.2,22.4 L50.525,25.325 Z M60.55,24.45 L55.5,24.45 L55.5,21 L69.5,21 L69.5,24.45 L64.45,24.45 L64.45,38.7 L60.55,38.7 L60.55,24.45 Z" id="BUTIK-HOST"></path>
            </g>
            <g id="Group" transform="translate(3.000000, 3.000000)" stroke="#D8D8D8" stroke-width="4">
                <use id="Path-3" mask="url(#mask-2)" xlink:href="#path-1"></use>
                <use id="Path-2" mask="url(#mask-4)" stroke-linecap="round" stroke-linejoin="round" xlink:href="#path-3"></use>
            </g>
        </g>
    </g>
</svg>